<?xml version="1.0" standalone="no"?>
<!DOCTYPE svg PUBLIC "-//W3C//DTD SVG 20010904//EN"
 "http://www.w3.org/TR/2001/REC-SVG-20010904/DTD/svg10.dtd">
<svg version="1.0" xmlns="http://www.w3.org/2000/svg"
 width="400.000000pt" height="400.000000pt" viewBox="0 0 400.000000 400.000000"
 preserveAspectRatio="xMidYMid meet">

<g transform="translate(0.000000,400.000000) scale(0.100000,-0.100000)"
fill="#000000" stroke="none">
<path d="M2201 3861 c11 -23 10 -23 -26 -17 -25 5 -35 4 -30 -3 3 -7 0 -8 -9
-5 -9 3 -13 10 -10 15 3 5 -6 9 -20 9 -14 0 -26 -5 -26 -12 0 -9 -3 -9 -11 -1
-9 9 -15 8 -26 -3 -13 -13 -17 -13 -27 1 -8 12 -20 14 -39 10 -24 -6 -26 -10
-15 -24 11 -14 11 -14 -2 -5 -8 6 -25 14 -38 17 -18 4 -22 2 -18 -9 4 -12 1
-14 -14 -9 -11 4 -20 2 -20 -3 0 -6 -9 -8 -20 -5 -12 3 -22 -1 -26 -10 -3 -9
-13 -13 -26 -9 -16 4 -19 2 -13 -8 5 -9 4 -11 -4 -6 -7 5 -20 -1 -31 -14 -11
-13 -33 -23 -52 -25 -18 -2 -39 -3 -45 -4 -7 -1 -13 -8 -13 -16 0 -8 -17 -19
-40 -26 -22 -7 -42 -20 -45 -30 -3 -10 -14 -21 -24 -24 -10 -3 -31 -17 -47
-30 -16 -14 -35 -25 -42 -25 -8 0 -12 -5 -10 -12 4 -11 -25 -48 -38 -48 -10 0
-34 -28 -34 -39 0 -6 -5 -11 -11 -11 -6 0 -9 -6 -6 -14 3 -8 -4 -21 -17 -30
-22 -14 -99 -120 -102 -141 -6 -34 -26 -95 -33 -100 -5 -3 -15 -36 -22 -74
-14 -80 1 -353 27 -476 18 -91 18 -209 0 -238 -12 -18 -14 -71 -11 -292 6
-535 50 -672 310 -973 50 -57 87 -109 90 -127 32 -157 136 -366 183 -365 16 1
16 2 0 13 -24 19 -70 105 -57 109 5 2 11 11 13 20 3 26 16 34 27 18 8 -11 12
-12 16 -2 6 15 59 16 68 2 9 -15 35 7 35 29 0 21 -71 89 -127 121 -51 30 -54
43 -13 51 17 4 33 9 37 12 9 10 -8 27 -27 27 -21 0 -58 42 -66 77 -4 12 -11
23 -18 23 -17 0 -49 57 -36 65 5 3 10 11 10 16 0 6 -5 7 -11 4 -13 -9 -40 26
-34 44 3 7 -1 19 -10 25 -23 17 -5 69 26 76 22 6 24 11 24 59 l0 54 40 4 c22
2 41 6 44 8 2 3 10 0 18 -6 10 -9 13 -8 13 5 0 9 -8 16 -18 16 -9 0 -23 9 -29
20 -12 19 -8 19 212 17 217 -2 300 6 293 28 -3 12 -108 7 -124 -6 -11 -9 -173
-4 -241 7 -33 5 -44 26 -22 40 16 9 -9 24 -43 24 -15 0 -30 5 -33 10 -3 6 -22
10 -41 10 -19 0 -34 -4 -34 -10 0 -15 -17 -12 -45 6 -29 19 -22 28 40 59 22
11 48 27 57 35 11 9 33 13 58 11 24 -1 40 2 40 8 0 6 -10 11 -23 11 -38 0 -97
78 -97 129 0 17 11 56 25 86 13 31 29 91 34 134 6 42 14 88 20 102 5 14 12 50
16 80 6 52 5 58 -27 100 -18 24 -39 56 -47 72 -8 15 -18 27 -23 27 -4 0 -8 7
-8 15 0 8 -21 24 -47 36 -38 17 -57 20 -104 15 -47 -6 -65 -3 -100 15 -66 32
-91 77 -87 156 2 52 6 63 20 63 22 0 30 27 22 75 -7 47 13 123 37 138 14 9 15
14 7 25 -15 17 26 60 62 64 14 2 28 7 31 11 3 4 23 9 45 11 21 2 55 7 74 11
28 5 45 2 75 -16 22 -12 50 -22 63 -21 12 1 22 -3 22 -8 0 -16 15 -12 55 15
20 15 40 24 43 20 3 -3 0 -5 -6 -5 -7 0 -12 -9 -12 -19 0 -11 -4 -23 -10 -26
-5 -3 -10 -10 -10 -15 0 -5 28 6 63 24 34 19 87 42 117 52 30 10 57 20 60 23
14 16 53 31 83 31 19 0 48 5 65 11 41 14 153 -18 167 -50 5 -11 14 -20 20 -18
5 2 20 -8 32 -21 13 -14 26 -22 30 -19 3 4 12 -1 19 -11 9 -13 16 -14 24 -6
14 14 62 -5 56 -22 -3 -6 1 -17 7 -23 6 -6 7 -11 3 -11 -5 0 -3 -7 4 -15 9
-11 9 -15 1 -15 -15 0 16 -57 42 -80 10 -8 19 -25 20 -38 1 -13 26 -50 58 -83
33 -35 64 -79 74 -107 10 -26 25 -57 33 -70 8 -12 18 -63 22 -115 4 -50 12
-103 17 -117 6 -14 13 -67 17 -119 4 -52 11 -100 16 -107 6 -6 8 -18 5 -25 -3
-8 -1 -27 4 -44 8 -27 9 -26 10 21 1 70 19 161 42 210 18 40 101 124 122 124
7 0 8 67 3 198 -10 330 -18 435 -32 480 -8 23 -14 55 -14 71 0 16 -7 34 -15
41 -8 7 -15 22 -15 35 0 12 -3 25 -7 29 -5 4 -8 11 -9 14 -2 17 -37 86 -50 99
-8 8 -14 19 -14 25 0 6 -11 23 -25 37 -13 14 -42 45 -63 68 -22 23 -42 39 -45
36 -4 -3 -12 7 -19 21 -7 17 -22 29 -39 33 -15 3 -31 15 -38 29 -6 13 -14 23
-18 22 -19 -4 -63 16 -63 28 0 8 -10 14 -24 14 -15 0 -33 11 -45 27 -12 14
-24 23 -27 20 -4 -4 -18 3 -32 13 -29 24 -52 26 -52 5 0 -21 -6 -19 -44 12
-36 28 -106 43 -106 22 0 -8 -7 -6 -18 4 -26 24 -33 21 -21 -9 9 -25 8 -26 -8
-13 -10 7 -28 25 -41 39 -23 25 -23 25 -11 1z m-206 -21 c3 -5 1 -10 -4 -10
-6 0 -11 5 -11 10 0 6 2 10 4 10 3 0 8 -4 11 -10z m95 -647 c0 -12 -39 -25
-110 -37 l-35 -5 32 27 c23 20 43 27 72 27 26 0 41 -4 41 -12z m-550 -708 c71
-15 150 -50 150 -65 0 -13 0 -13 -48 10 -50 24 -59 25 -41 3 13 -15 12 -16 -6
-8 -11 5 -45 10 -75 13 -30 2 -59 8 -64 13 -6 5 -18 9 -27 9 -26 0 -73 19 -65
27 9 9 79 21 96 16 8 -2 44 -11 80 -18z m114 -132 c-4 -13 -2 -23 4 -23 6 0
17 -3 26 -6 25 -10 19 17 -11 48 -17 18 -22 28 -12 28 19 -1 52 -47 51 -74 0
-11 -10 -43 -22 -71 -35 -78 -60 -166 -60 -210 0 -24 -12 -66 -30 -104 -26
-55 -29 -69 -20 -94 15 -45 12 -72 -10 -92 -11 -10 -20 -31 -20 -46 0 -33 -37
-61 -51 -38 -4 7 -5 17 -3 21 3 4 0 8 -5 8 -24 0 -1 -117 25 -127 22 -8 17
-39 -9 -50 -22 -10 -23 -16 -22 -97 2 -81 1 -86 -19 -86 -12 0 -30 12 -41 27
-11 14 -25 32 -32 39 -7 6 -31 83 -54 170 -42 159 -59 285 -53 405 2 36 0 47
-6 34 -8 -20 -13 25 -13 141 -1 63 18 86 66 84 63 -4 67 -2 67 31 0 30 1 30
43 29 69 -3 89 -1 82 10 -5 8 31 15 58 11 4 -1 10 7 13 16 18 58 23 64 44 51
13 -9 18 -19 14 -35z m-184 6 c7 -11 10 -23 7 -25 -9 -9 -35 8 -40 27 -7 26
19 25 33 -2z"/>
<path d="M2645 2910 c3 -5 8 -10 11 -10 2 0 4 5 4 10 0 6 -5 10 -11 10 -5 0
-7 -4 -4 -10z"/>
<path d="M2363 2592 c3 -4 -52 -7 -123 -7 -155 0 -177 -8 -172 -64 2 -24 9
-38 18 -38 8 0 14 4 14 8 0 3 12 9 28 12 15 3 54 10 87 17 33 7 71 13 85 15
55 5 54 4 39 22 -12 14 -12 16 1 11 9 -3 24 0 33 7 16 11 16 13 2 19 -9 3 -14
2 -12 -2z"/>
<path d="M2430 2576 c0 -2 7 -6 15 -10 8 -3 15 -1 15 4 0 6 -7 10 -15 10 -8 0
-15 -2 -15 -4z"/>
<path d="M2553 2559 c6 -10 13 -15 15 -9 2 5 16 7 30 4 21 -4 23 -3 11 5 -8 5
-27 12 -42 15 -24 4 -25 3 -14 -15z"/>
<path d="M2039 2523 c-13 -16 -12 -17 4 -4 9 7 17 15 17 17 0 8 -8 3 -21 -13z"/>
<path d="M2164 2440 c-12 -5 -25 -14 -29 -20 -6 -10 50 13 64 26 7 7 -13 3
-35 -6z"/>
<path d="M2225 2435 c-36 -9 -59 -24 -82 -51 -18 -20 -33 -41 -33 -45 0 -4 26
-7 58 -7 l57 0 -32 14 c-18 8 -33 18 -33 22 0 13 23 32 39 32 8 0 23 7 33 17
17 15 18 15 18 -5 0 -32 42 -92 60 -86 12 4 108 13 177 17 19 1 22 35 4 51
-24 21 -135 56 -178 55 -21 0 -60 -6 -88 -14z m125 -35 c0 -5 -4 -10 -10 -10
-5 0 -10 5 -10 10 0 6 5 10 10 10 6 0 10 -4 10 -10z m80 -30 c0 -5 -7 -10 -16
-10 -8 0 -12 5 -9 10 3 6 10 10 16 10 5 0 9 -4 9 -10z m-280 -20 c0 -5 -4 -10
-10 -10 -5 0 -10 5 -10 10 0 6 5 10 10 10 6 0 10 -4 10 -10z"/>
<path d="M3020 2220 c0 -5 5 -10 11 -10 5 0 7 5 4 10 -3 6 -8 10 -11 10 -2 0
-4 -4 -4 -10z"/>
<path d="M2956 1974 c-8 -21 -8 -24 4 -24 5 0 14 9 20 20 8 16 8 20 -4 20 -7
0 -17 -7 -20 -16z"/>
<path d="M1990 1828 c11 -12 23 -19 26 -15 9 9 -15 37 -33 37 -10 0 -8 -6 7
-22z"/>
<path d="M1830 1640 c0 -5 5 -10 11 -10 5 0 7 5 4 10 -3 6 -8 10 -11 10 -2 0
-4 -4 -4 -10z"/>
<path d="M1875 1640 c3 -5 8 -10 11 -10 2 0 4 5 4 10 0 6 -5 10 -11 10 -5 0
-7 -4 -4 -10z"/>
<path d="M2909 1538 c0 -2 -2 -10 -4 -18 -41 -164 -50 -192 -88 -264 -8 -17
-6 -17 19 3 62 48 151 141 163 169 11 26 10 34 -4 56 -17 25 -82 66 -86 54z"/>
<path d="M38 1481 l-38 -16 0 -732 c0 -701 1 -733 18 -733 19 0 63 62 142 200
23 41 52 91 65 110 12 19 39 62 60 95 40 62 97 122 199 210 76 65 95 78 194
127 45 22 81 43 78 45 -2 3 -14 -1 -26 -7 -11 -6 -26 -9 -33 -6 -9 3 -9 5 1 5
17 1 15 21 -2 21 -10 0 -16 13 -18 37 -2 27 -8 39 -23 43 -15 4 -21 15 -22 45
-2 33 -1 36 7 18 5 -13 15 -23 21 -23 7 0 9 9 5 23 -3 12 -6 34 -6 50 0 17 -5
27 -14 27 -16 0 -58 52 -69 83 -4 10 -11 16 -16 13 -14 -9 -2 34 20 77 l20 37
-26 10 c-14 6 -30 10 -34 10 -5 0 -14 7 -21 15 -7 8 -27 15 -44 15 -55 0 -101
71 -56 85 45 14 13 35 -53 35 -31 0 -45 5 -55 20 -11 17 -23 20 -96 20 -47 0
-88 5 -91 10 -3 6 -15 10 -25 10 -10 0 -20 8 -22 18 -3 17 -5 17 -40 3z m217
-70 c3 -5 1 -12 -5 -16 -5 -3 -10 1 -10 9 0 18 6 21 15 7z m65 -61 c0 -5 -2
-10 -4 -10 -3 0 -8 5 -11 10 -3 6 -1 10 4 10 6 0 11 -4 11 -10z"/>
<path d="M480 1370 c0 -5 5 -10 11 -10 5 0 7 5 4 10 -3 6 -8 10 -11 10 -2 0
-4 -4 -4 -10z"/>
<path d="M1798 643 c7 -3 16 -2 19 1 4 3 -2 6 -13 5 -11 0 -14 -3 -6 -6z"/>
</g>
</svg>
